HIERARCHY
ROOT Hips
{
	OFFSET 0 0 0
	CHANNELS 6 Xposition Yposition Zposition Yrotation Xrotation Zrotation
	JOINT Spine
	{
		OFFSET -0 7.69132 -2.45161
		CHANNELS 3 Yrotation Xrotation Zrotation
		JOINT Spine1
		{
			OFFSET -0 7.43975 0
			CHANNELS 3 Yrotation Xrotation Zrotation
			JOINT Spine2
			{
				OFFSET -0 7.43975 0
				CHANNELS 3 Yrotation Xrotation Zrotation
				JOINT Spine3
				{
					OFFSET -0 7.43975 0
					CHANNELS 3 Yrotation Xrotation Zrotation
					JOINT Neck
					{
						OFFSET -0 13.9329 3.45161
						CHANNELS 3 Yrotation Xrotation Zrotation
						JOINT Head
						{
							OFFSET -0 9.61415 0
							CHANNELS 3 Yrotation Xrotation Zrotation
							End Site
							{
								OFFSET 0 15 0
							}
						}
					}
					JOINT LeftShoulder
					{
						OFFSET 1.60236 2.19729 3.20472
						CHANNELS 3 Yrotation Xrotation Zrotation
						JOINT LeftArm
						{
							OFFSET 17.7845 0 0
							CHANNELS 3 Yrotation Xrotation Zrotation
							JOINT LeftForeArm
							{
								OFFSET 22.4513 0 0
								CHANNELS 3 Yrotation Xrotation Zrotation
								JOINT LeftHand
								{
									OFFSET 20.5515 0 0
									CHANNELS 3 Yrotation Xrotation Zrotation
									JOINT LeftHandThumb1
									{
										OFFSET 4.91385 0 2.72801
										CHANNELS 3 Yrotation Xrotation Zrotation
										JOINT LeftHandThumb2
										{
											OFFSET 3 0 1
											CHANNELS 3 Yrotation Xrotation Zrotation
											JOINT LeftHandThumb3
											{
												OFFSET 2.1 0 0
												CHANNELS 3 Yrotation Xrotation Zrotation
												JOINT LeftHandThumb4
												{
													OFFSET 1.305 0 0
													CHANNELS 3 Yrotation Xrotation Zrotation
													End Site
													{
														OFFSET -0 0 0
													}
												}
											}
										}
									}
									JOINT LeftHandIndex1
									{
										OFFSET 9.07627 0 3.52715
										CHANNELS 3 Yrotation Xrotation Zrotation
										JOINT LeftHandIndex2
										{
											OFFSET 3.5 0 0
											CHANNELS 3 Yrotation Xrotation Zrotation
											JOINT LeftHandIndex3
											{
												OFFSET 2.45 0 0
												CHANNELS 3 Yrotation Xrotation Zrotation
												JOINT LeftHandIndex4
												{
													OFFSET 1.5225 0 0
													CHANNELS 3 Yrotation Xrotation Zrotation
													End Site
													{
														OFFSET -0 0 0
													}
												}
											}
										}
									}
									JOINT LeftHandMiddle1
									{
										OFFSET 9.21121 0 1.12806
										CHANNELS 3 Yrotation Xrotation Zrotation
										JOINT LeftHandMiddle2
										{
											OFFSET 4.6 0 0
											CHANNELS 3 Yrotation Xrotation Zrotation
											JOINT LeftHandMiddle3
											{
												OFFSET 3.22 0 0
												CHANNELS 3 Yrotation Xrotation Zrotation
												JOINT LeftHandMiddle4
												{
													OFFSET 2.001 0 0
													CHANNELS 3 Yrotation Xrotation Zrotation
													End Site
													{
														OFFSET -0 0 0
													}
												}
											}
										}
									}
									JOINT LeftHandRing1
									{
										OFFSET 9.04616 0 -1.27103
										CHANNELS 3 Yrotation Xrotation Zrotation
										JOINT LeftHandRing2
										{
											OFFSET 3.75 0 0
											CHANNELS 3 Yrotation Xrotation Zrotation
											JOINT LeftHandRing3
											{
												OFFSET 2.625 0 0
												CHANNELS 3 Yrotation Xrotation Zrotation
												JOINT LeftHandRing4
												{
													OFFSET 1.63125 0 0
													CHANNELS 3 Yrotation Xrotation Zrotation
													End Site
													{
														OFFSET -0 0 0
													}
												}
											}
										}
									}
									JOINT LeftHandPinky1
									{
										OFFSET 8.58111 0 -3.67011
										CHANNELS 3 Yrotation Xrotation Zrotation
										JOINT LeftHandPinky2
										{
											OFFSET 2.875 0 0
											CHANNELS 3 Yrotation Xrotation Zrotation
											JOINT LeftHandPinky3
											{
												OFFSET 2.0125 0 0
												CHANNELS 3 Yrotation Xrotation Zrotation
												JOINT LeftHandPinky4
												{
													OFFSET 1.25062 0 0
													CHANNELS 3 Yrotation Xrotation Zrotation
													End Site
													{
														OFFSET -0 0 0
													}
												}
											}
										}
									}
								}
							}
						}
					}
					JOINT RightShoulder
					{
						OFFSET -1.60236 2.19729 3.20472
						CHANNELS 3 Yrotation Xrotation Zrotation
						JOINT RightArm
						{
							OFFSET -17.7845 0 0
							CHANNELS 3 Yrotation Xrotation Zrotation
							JOINT RightForeArm
							{
								OFFSET -22.4513 0 0
								CHANNELS 3 Yrotation Xrotation Zrotation
								JOINT RightHand
								{
									OFFSET -20.5515 0 0
									CHANNELS 3 Yrotation Xrotation Zrotation
									JOINT RightHandThumb1
									{
										OFFSET -4.4694 0 0.364316
										CHANNELS 3 Yrotation Xrotation Zrotation
										JOINT RightHandThumb2
										{
											OFFSET -3 0 1
											CHANNELS 3 Yrotation Xrotation Zrotation
											JOINT RightHandThumb3
											{
												OFFSET -2.1 0 0
												CHANNELS 3 Yrotation Xrotation Zrotation
												JOINT RightHandThumb4
												{
													OFFSET -1.305 0 0
													CHANNELS 3 Yrotation Xrotation Zrotation
													End Site
													{
														OFFSET -0 0 0
													}
												}
											}
										}
									}
									JOINT RightHandIndex1
									{
										OFFSET -7.92682 0 1.55071
										CHANNELS 3 Yrotation Xrotation Zrotation
										JOINT RightHandIndex2
										{
											OFFSET -3.5 0 0
											CHANNELS 3 Yrotation Xrotation Zrotation
											JOINT RightHandIndex3
											{
												OFFSET -2.45 0 0
												CHANNELS 3 Yrotation Xrotation Zrotation
												JOINT RightHandIndex4
												{
													OFFSET -1.5225 0 0
													CHANNELS 3 Yrotation Xrotation Zrotation
													End Site
													{
														OFFSET -0 0 0
													}
												}
											}
										}
									}
									JOINT RightHandMiddle1
									{
										OFFSET -8.23226 0 0.386205
										CHANNELS 3 Yrotation Xrotation Zrotation
										JOINT RightHandMiddle2
										{
											OFFSET -4.6 0 0
											CHANNELS 3 Yrotation Xrotation Zrotation
											JOINT RightHandMiddle3
											{
												OFFSET -3.22 0 0
												CHANNELS 3 Yrotation Xrotation Zrotation
												JOINT RightHandMiddle4
												{
													OFFSET -2.001 0 0
													CHANNELS 3 Yrotation Xrotation Zrotation
													End Site
													{
														OFFSET -0 0 0
													}
												}
											}
										}
									}
									JOINT RightHandRing1
									{
										OFFSET -8.23771 0 -0.778302
										CHANNELS 3 Yrotation Xrotation Zrotation
										JOINT RightHandRing2
										{
											OFFSET -3.75 0 0
											CHANNELS 3 Yrotation Xrotation Zrotation
											JOINT RightHandRing3
											{
												OFFSET -2.625 0 0
												CHANNELS 3 Yrotation Xrotation Zrotation
												JOINT RightHandRing4
												{
													OFFSET -1.63125 0 0
													CHANNELS 3 Yrotation Xrotation Zrotation
													End Site
													{
														OFFSET -0 0 0
													}
												}
											}
										}
									}
									JOINT RightHandPinky1
									{
										OFFSET -7.94315 0 -1.94281
										CHANNELS 3 Yrotation Xrotation Zrotation
										JOINT RightHandPinky2
										{
											OFFSET -2.875 0 0
											CHANNELS 3 Yrotation Xrotation Zrotation
											JOINT RightHandPinky3
											{
												OFFSET -2.0125 0 0
												CHANNELS 3 Yrotation Xrotation Zrotation
												JOINT RightHandPinky4
												{
													OFFSET -1.25062 0 0
													CHANNELS 3 Yrotation Xrotation Zrotation
													End Site
													{
														OFFSET -0 0 0
													}
												}
											}
										}
									}
								}
							}
						}
					}
				}
			}
		}
	}
	JOINT LeftUpLeg
	{
		OFFSET 9.61415 -3.20472 3
		CHANNELS 3 Yrotation Xrotation Zrotation
		JOINT LeftLeg
		{
			OFFSET -0 -42.2921 2.2433
			CHANNELS 3 Yrotation Xrotation Zrotation
			JOINT LeftFoot
			{
				OFFSET -0 -34.6503 -2.2433
				CHANNELS 3 Yrotation Xrotation Zrotation
				JOINT LeftToeBase
				{
					OFFSET -0 -8.30332 8.5187
					CHANNELS 3 Yrotation Xrotation Zrotation
					End Site
					{
						OFFSET 0 0 5
					}
				}
			}
		}
	}
	JOINT RightUpLeg
	{
		OFFSET -9.61415 -3.20472 3
		CHANNELS 3 Yrotation Xrotation Zrotation
		JOINT RightLeg
		{
			OFFSET -0 -42.2921 2.2433
			CHANNELS 3 Yrotation Xrotation Zrotation
			JOINT RightFoot
			{
				OFFSET -0 -34.6503 -2.2433
				CHANNELS 3 Yrotation Xrotation Zrotation
				JOINT RightToeBase
				{
					OFFSET -0 -8.30332 8.5187
					CHANNELS 3 Yrotation Xrotation Zrotation
					End Site
					{
						OFFSET 0 0 5
					}
				}
			}
		}
	}
}
MOTION
Frames: 5
Frame Time: 0.0047619
28.975302 84.729810 -45.745410 -136.942038 -1.263011 -3.664272 1.837315 2.073881 3.124124 2.391061 1.462623 1.399397 2.549963 1.247087 -0.286851 2.324050 0.542587 -1.605050 23.146736 7.254791 1.820514 9.593546 0.595903 -4.778398 -2.149564 -15.034189 32.753092 -47.587336 -15.829192 45.352297 -46.374561 -31.312256 41.344102 -11.774661 -39.773348 4.206069 16.046796 -5.590110 0.220769 18.485567 -6.426490 0.119896 -46.574098 -20.832231 8.376913 -0.003952 -0.001342 8.542727 -0.003952 -0.001342 8.542727 -0.002790 -0.001872 6.834188 -0.001196 -0.001206 3.417081 -0.012875 -0.004541 2.788432 -0.012875 -0.004541 2.788432 -0.010150 -0.004044 2.230743 -0.004997 -0.002187 1.115361 -0.012947 -0.004563 0.937085 -0.012947 -0.004563 0.937085 -0.010336 -0.003734 0.749665 -0.005149 -0.001896 0.374823 -0.011442 -0.003890 5.311068 -0.011442 -0.003890 5.311068 -0.008867 -0.003821 4.248854 -0.004300 -0.002201 2.124420 -159.279391 -0.045318 -179.752117 9.677103 -10.382972 -33.968455 48.297714 -14.102440 -56.601076 32.773311 -21.989145 -33.878554 -63.736687 -36.174555 88.910254 2.015196 1.238798 -9.737331 2.298495 1.454476 -11.196803 -42.212277 -10.860654 8.233361 -0.059782 -0.033587 -10.748162 -0.059782 -0.033587 -10.748162 -0.051819 -0.017912 -8.598530 -0.026936 -0.005159 -4.299269 -0.104035 -0.058787 -1.397654 -0.104035 -0.058787 -1.397654 -0.083746 -0.046119 -1.118134 -0.042133 -0.022644 -0.559089 0.119649 0.065104 22.043467 0.119649 0.065104 22.043467 0.070627 0.083353 17.634791 0.021578 0.050324 8.817373 0.027301 0.014919 37.119557 0.027301 0.014919 37.119557 0.010556 0.022552 29.695645 -0.000870 0.012431 14.847816 16.046796 -5.590110 0.220769 16.855751 -17.986727 3.852272 0.000000 48.210394 0.000000 11.238648 -4.817719 13.608587 0.000000 -18.306765 0.000000 -24.253179 -9.801859 -3.236186 0.000000 43.028108 0.000000 -32.512023 -1.475830 10.281140 0.000000 -14.057648 0.000000
28.792215 84.914954 -45.796527 -135.419222 -1.265509 -3.731886 1.909307 1.927526 3.176914 2.482949 1.448318 1.426168 2.517527 1.214841 -0.317975 2.311176 0.582410 -1.573148 23.275713 7.520153 1.994757 9.640902 0.277127 -4.960776 -1.996978 -15.096742 32.784737 -47.460923 -15.533388 45.245493 -46.135661 -31.549204 41.833425 -11.282796 -41.305645 3.840757 16.046796 -5.590110 0.220769 18.485567 -6.426490 0.119896 -46.574098 -20.832231 8.376913 -0.003952 -0.001342 8.542727 -0.003952 -0.001342 8.542727 -0.002790 -0.001872 6.834188 -0.001196 -0.001206 3.417081 -0.012875 -0.004541 2.788432 -0.012875 -0.004541 2.788432 -0.010150 -0.004044 2.230743 -0.004997 -0.002187 1.115361 -0.012947 -0.004563 0.937085 -0.012947 -0.004563 0.937085 -0.010336 -0.003734 0.749665 -0.005149 -0.001896 0.374823 -0.011442 -0.003890 5.311068 -0.011442 -0.003890 5.311068 -0.008867 -0.003821 4.248854 -0.004300 -0.002201 2.124420 -159.279391 -0.045318 -179.752117 9.760721 -10.402701 -34.022541 48.614936 -14.414312 -56.600479 32.558678 -21.310190 -33.792996 -63.314736 -34.591446 88.545742 2.015196 1.238798 -9.737331 2.298495 1.454476 -11.196803 -42.212277 -10.860654 8.233361 -0.059782 -0.033587 -10.748162 -0.059782 -0.033587 -10.748162 -0.051819 -0.017912 -8.598530 -0.026936 -0.005159 -4.299269 -0.104035 -0.058787 -1.397654 -0.104035 -0.058787 -1.397654 -0.083746 -0.046119 -1.118134 -0.042133 -0.022644 -0.559089 0.119649 0.065104 22.043467 0.119649 0.065104 22.043467 0.070627 0.083353 17.634791 0.021578 0.050324 8.817373 0.027301 0.014919 37.119557 0.027301 0.014919 37.119557 0.010556 0.022552 29.695645 -0.000870 0.012431 14.847816 16.046796 -5.590110 0.220769 16.119702 -17.413218 3.938155 0.000000 47.253092 0.000000 10.129635 -5.142492 13.445346 0.000000 -18.173427 0.000000 -23.852088 -9.254481 -3.420695 0.000000 42.729881 0.000000 -32.344387 -0.817934 9.828957 0.000000 -14.019266 0.000000
28.614389 85.094513 -45.853665 -133.860618 -1.293817 -3.799561 1.982115 1.854533 3.166001 2.543987 1.419642 1.433896 2.584157 1.189941 -0.255263 2.293146 0.467954 -1.523926 23.373144 7.839753 2.254965 9.654195 0.164133 -5.208313 -1.913410 -14.983852 32.703755 -47.019473 -14.928846 45.314473 -47.121632 -32.818770 42.673797 -11.011446 -41.016547 3.821867 15.967568 -4.605807 0.328325 18.376129 -5.298171 0.266671 -46.384379 -20.805108 8.399731 0.000019 0.000040 7.950618 0.000019 0.000040 7.950618 0.000056 -0.000050 6.360496 0.000047 -0.000054 3.180261 -0.000671 -0.000211 1.320607 -0.000671 -0.000211 1.320607 -0.000526 -0.000203 1.056496 -0.000256 -0.000111 0.528247 -0.001100 -0.000365 -0.271862 -0.001100 -0.000365 -0.271862 -0.000883 -0.000302 -0.217488 -0.000435 -0.000158 -0.108744 0.002839 0.001129 1.858167 0.002839 0.001129 1.858167 0.002251 0.000948 1.486538 0.001108 0.000484 0.743280 -159.279568 -0.045317 -179.752119 9.791362 -10.298622 -34.040089 48.848389 -14.685326 -56.676063 32.343531 -20.637048 -33.661466 -65.574668 -34.264222 90.652269 2.051373 1.186876 -9.764191 2.340758 1.394752 -11.226531 -40.781067 -16.352189 14.790817 -0.007099 -0.004079 -9.568809 -0.007099 -0.004079 -9.568809 -0.006181 -0.002179 -7.655040 -0.003214 -0.000639 -3.827538 -0.001940 -0.000945 2.465259 -0.001940 -0.000945 2.465259 -0.001922 -0.000146 1.972208 -0.001093 0.000096 0.986112 0.001108 0.001961 17.563140 0.001108 0.001961 17.563140 -0.000364 0.002483 14.050505 -0.000775 0.001335 7.025262 -0.022307 -0.012119 32.246965 -0.022307 -0.012119 32.246965 -0.009835 -0.017795 25.797575 -0.000539 -0.010175 12.898778 15.967568 -4.605807 0.328325 15.240101 -16.845167 4.070903 0.000000 46.351872 0.000000 8.995674 -5.418550 13.143635 0.000000 -18.021342 0.000000 -23.521715 -8.653278 -3.596057 0.000000 42.369521 0.000000 -32.182531 -0.032564 9.104612 0.000000 -14.152931 0.000000
28.427246 85.271008 -45.907986 -132.285565 -1.303301 -3.871506 2.028087 1.768498 3.187154 2.535816 1.303384 1.447885 2.624866 1.148101 -0.261235 2.388942 0.499382 -1.511223 23.438346 8.160681 2.531196 9.669511 -0.037846 -5.283605 -1.855431 -14.790930 32.776774 -46.921762 -14.942474 45.480696 -47.620725 -33.266695 42.894868 -10.529044 -41.702255 3.971851 15.967568 -4.605807 0.328325 18.376129 -5.298171 0.266671 -46.384379 -20.805108 8.399731 0.000019 0.000040 7.950618 0.000019 0.000040 7.950618 0.000056 -0.000050 6.360496 0.000047 -0.000054 3.180261 -0.000671 -0.000211 1.320607 -0.000671 -0.000211 1.320607 -0.000526 -0.000203 1.056496 -0.000256 -0.000111 0.528247 -0.001100 -0.000365 -0.271862 -0.001100 -0.000365 -0.271862 -0.000883 -0.000302 -0.217488 -0.000435 -0.000158 -0.108744 0.002839 0.001129 1.858167 0.002839 0.001129 1.858167 0.002251 0.000948 1.486538 0.001108 0.000484 0.743280 -159.279568 -0.045317 -179.752119 10.107423 -10.175234 -34.154480 48.658276 -15.045303 -56.165561 35.124763 -22.976073 -35.480851 -63.314559 -30.444383 86.267693 2.051373 1.186876 -9.764191 2.340758 1.394752 -11.226531 -40.781067 -16.352189 14.790817 -0.007099 -0.004079 -9.568809 -0.007099 -0.004079 -9.568809 -0.006181 -0.002179 -7.655040 -0.003214 -0.000639 -3.827538 -0.001940 -0.000945 2.465259 -0.001940 -0.000945 2.465259 -0.001922 -0.000146 1.972208 -0.001093 0.000096 0.986112 0.001108 0.001961 17.563140 0.001108 0.001961 17.563140 -0.000364 0.002483 14.050505 -0.000775 0.001335 7.025262 -0.022307 -0.012119 32.246965 -0.022307 -0.012119 32.246965 -0.009835 -0.017795 25.797575 -0.000539 -0.010175 12.898778 15.967568 -4.605807 0.328325 14.284020 -16.238072 4.190650 0.000000 45.341713 0.000000 7.894510 -5.634332 13.047485 0.000000 -17.945756 0.000000 -23.183767 -8.114494 -3.735324 0.000000 42.063685 0.000000 -32.072850 0.843662 8.295097 0.000000 -14.489695 0.000000
28.243787 85.436786 -45.978546 -130.673990 -1.321971 -3.951519 2.057569 1.682012 3.193071 2.576612 1.267561 1.454182 2.598494 1.135444 -0.240540 2.362344 0.507744 -1.497550 23.602451 8.245547 2.620106 9.739376 -0.072925 -5.241362 -1.890980 -14.844030 32.855444 -47.199559 -15.365627 45.656470 -46.935013 -32.555051 41.989903 -14.108295 -33.131508 3.372661 16.919659 -3.957632 0.449096 19.471562 -4.567058 0.413335 -47.140400 -31.287430 15.519450 -0.079285 -0.028234 10.627783 -0.079285 -0.028234 10.627783 -0.058455 -0.033377 8.502222 -0.026578 -0.020650 4.251098 -0.023266 -0.008392 2.102027 -0.023266 -0.008392 2.102027 -0.018378 -0.007331 1.681621 -0.009082 -0.003924 0.840807 -0.026698 -0.009616 0.622048 -0.026698 -0.009616 0.622048 -0.021300 -0.007858 0.497625 -0.010624 -0.003986 0.248816 -0.096521 -0.034301 5.139077 -0.096521 -0.034301 5.139077 -0.074830 -0.033366 4.111261 -0.036285 -0.019042 2.055633 -159.279746 -0.045316 -179.752121 10.057380 -10.223566 -34.162948 46.663110 -14.068253 -55.769923 36.870540 -25.756889 -37.125636 -62.869322 -28.734039 84.740324 2.060123 1.174837 -9.770449 2.350983 1.380867 -11.233352 -40.531203 -17.652177 16.343933 -0.001289 -0.000749 -9.291479 -0.001289 -0.000749 -9.291479 -0.001105 -0.000399 -7.433163 -0.000598 -0.000116 -3.716598 0.000796 0.000458 3.373146 0.000796 0.000458 3.373146 0.000527 0.000565 2.698531 0.000213 0.000359 1.349260 -0.001207 -0.000329 16.510179 -0.001207 -0.000329 16.510179 -0.001018 -0.000355 13.208147 -0.000526 -0.000260 6.604072 -0.006793 -0.003774 31.102371 -0.006793 -0.003774 31.102371 -0.002991 -0.005459 24.881892 -0.000186 -0.003099 12.440952 16.919659 -3.957632 0.449096 13.201741 -15.635221 4.353693 0.000000 44.362864 0.000000 6.690894 -5.832760 12.885834 0.000000 -18.060672 0.000000 -22.959015 -7.522654 -3.852185 0.000000 41.761938 0.000000 -31.902172 1.490436 7.571278 0.000000 -14.803024 0.000000
